<mxfile host="app.diagrams.net" modified="2021-12-15T09:29:38.251Z" agent="5.0 (Windows NT 10.0; Win64; x64) AppleWebKit/537.36 (KHTML, like Gecko) Chrome/96.0.4664.55 Safari/537.36 Edg/96.0.1054.43" etag="_ttdZNV5XrdxLtWPsKvn" version="15.7.0" type="github">
  <diagram name="Page-1" id="c37626ed-c26b-45fb-9056-f9ebc6bb27b6">
    <mxGraphModel dx="2370" dy="1323" grid="1" gridSize="10" guides="1" tooltips="1" connect="1" arrows="1" fold="1" page="1" pageScale="1" pageWidth="1100" pageHeight="850" background="none" math="0" shadow="0">
      <root>
        <mxCell id="0" />
        <mxCell id="1" parent="0" />
        <mxCell id="1c7a67bf8fd3230f-83" value="СК Центральный (66)" style="whiteSpace=wrap;html=1;rounded=0;shadow=0;comic=0;strokeWidth=1;fontFamily=Verdana;fontSize=14;fillColor=#f5f5f5;strokeColor=none;verticalAlign=top;fontStyle=1" parent="1" vertex="1">
          <mxGeometry x="460" y="246" width="1240" height="440" as="geometry" />
        </mxCell>
        <mxCell id="1c7a67bf8fd3230f-82" value="СК Пыховский (68)" style="whiteSpace=wrap;html=1;rounded=0;shadow=0;comic=0;strokeWidth=1;fontFamily=Verdana;fontSize=14;fillColor=#f5f5f5;strokeColor=none;fontStyle=1;verticalAlign=top;labelPosition=center;verticalLabelPosition=bottom;align=center;" parent="1" vertex="1">
          <mxGeometry x="1370" y="839" width="370" height="587" as="geometry" />
        </mxCell>
        <mxCell id="1c7a67bf8fd3230f-81" value="СК Владимирский (67)" style="whiteSpace=wrap;html=1;rounded=0;shadow=0;comic=0;strokeWidth=1;fontFamily=Verdana;fontSize=14;fillColor=#f5f5f5;strokeColor=none;fontStyle=1;verticalAlign=top;labelPosition=center;verticalLabelPosition=bottom;align=center;" parent="1" vertex="1">
          <mxGeometry x="910" y="838.9999999999999" width="432" height="587" as="geometry" />
        </mxCell>
        <mxCell id="1c7a67bf8fd3230f-80" value="РУ Бурляевский (61)" style="whiteSpace=wrap;html=1;rounded=0;shadow=0;comic=0;strokeWidth=1;fontFamily=Verdana;fontSize=14;fillColor=#f5f5f5;strokeColor=none;fontStyle=1;verticalAlign=top;labelPosition=center;verticalLabelPosition=bottom;align=center;" parent="1" vertex="1">
          <mxGeometry x="506" y="839" width="384" height="587" as="geometry" />
        </mxCell>
        <mxCell id="1c7a67bf8fd3230f-15" value="Internet" style="ellipse;shape=cloud;whiteSpace=wrap;html=1;rounded=0;shadow=0;comic=0;strokeWidth=1;fontFamily=Verdana;fontSize=12;" parent="1" vertex="1">
          <mxGeometry x="1430" y="686" width="260" height="138" as="geometry" />
        </mxCell>
        <mxCell id="1c7a67bf8fd3230f-54" style="edgeStyle=none;html=1;labelBackgroundColor=none;startFill=0;endArrow=none;endFill=0;strokeWidth=2;fontFamily=Verdana;fontSize=12;exitX=0.485;exitY=0.506;exitDx=0;exitDy=0;exitPerimeter=0;" parent="1" source="1c7a67bf8fd3230f-47" target="58_N4NvC8-cw4pMC1R1P-5" edge="1">
          <mxGeometry relative="1" as="geometry">
            <mxPoint x="1174" y="696" as="targetPoint" />
          </mxGeometry>
        </mxCell>
        <mxCell id="1c7a67bf8fd3230f-47" value="" style="shape=mxgraph.cisco.routers.router;html=1;dashed=0;fillColor=#036897;strokeColor=#ffffff;strokeWidth=2;verticalLabelPosition=bottom;verticalAlign=top;rounded=0;shadow=0;comic=0;fontFamily=Verdana;fontSize=12;" parent="1" vertex="1">
          <mxGeometry x="1135" y="590" width="78" height="53" as="geometry" />
        </mxCell>
        <mxCell id="58_N4NvC8-cw4pMC1R1P-2" value="LAN&lt;br&gt;10.66.0.0/24" style="ellipse;shape=cloud;whiteSpace=wrap;html=1;rounded=0;shadow=0;comic=0;strokeWidth=1;fontFamily=Verdana;fontSize=12;" vertex="1" parent="1">
          <mxGeometry x="1050" y="310" width="250" height="160" as="geometry" />
        </mxCell>
        <mxCell id="58_N4NvC8-cw4pMC1R1P-3" style="edgeStyle=none;html=1;labelBackgroundColor=none;startFill=0;endArrow=none;endFill=0;strokeWidth=2;fontFamily=Verdana;fontSize=12;entryX=0.5;entryY=0;entryDx=0;entryDy=0;entryPerimeter=0;" edge="1" parent="1" source="58_N4NvC8-cw4pMC1R1P-2" target="1c7a67bf8fd3230f-47">
          <mxGeometry relative="1" as="geometry">
            <mxPoint x="1260" y="499.9999999999998" as="sourcePoint" />
            <mxPoint x="1260" y="553" as="targetPoint" />
          </mxGeometry>
        </mxCell>
        <mxCell id="58_N4NvC8-cw4pMC1R1P-4" value="10.66.0.1" style="text;html=1;resizable=0;autosize=1;align=center;verticalAlign=middle;points=[];fillColor=none;strokeColor=none;rounded=0;" vertex="1" parent="1">
          <mxGeometry x="1174" y="570" width="70" height="20" as="geometry" />
        </mxCell>
        <mxCell id="58_N4NvC8-cw4pMC1R1P-5" value="LAN FC&lt;br&gt;172.15.66.0/16 (VLAN250)" style="ellipse;shape=cloud;whiteSpace=wrap;html=1;rounded=0;shadow=0;comic=0;strokeWidth=1;fontFamily=Verdana;fontSize=12;" vertex="1" parent="1">
          <mxGeometry x="1030" y="670" width="280" height="144" as="geometry" />
        </mxCell>
        <mxCell id="58_N4NvC8-cw4pMC1R1P-7" value="172.15.66.1&lt;br&gt;(VLAN250)" style="text;html=1;resizable=0;autosize=1;align=center;verticalAlign=middle;points=[];fillColor=none;strokeColor=none;rounded=0;" vertex="1" parent="1">
          <mxGeometry x="1050" y="638" width="80" height="30" as="geometry" />
        </mxCell>
        <mxCell id="58_N4NvC8-cw4pMC1R1P-14" style="edgeStyle=none;html=1;labelBackgroundColor=none;startFill=0;endArrow=none;endFill=0;strokeWidth=2;fontFamily=Verdana;fontSize=12;exitX=0.497;exitY=0.38;exitDx=0;exitDy=0;exitPerimeter=0;" edge="1" parent="1" source="58_N4NvC8-cw4pMC1R1P-13" target="58_N4NvC8-cw4pMC1R1P-5">
          <mxGeometry relative="1" as="geometry">
            <mxPoint x="1182.8299999999995" y="626.818" as="sourcePoint" />
            <mxPoint x="1354.77646050033" y="712.2608469699896" as="targetPoint" />
          </mxGeometry>
        </mxCell>
        <mxCell id="58_N4NvC8-cw4pMC1R1P-15" value="172.15.68.1&lt;br&gt;(VLAN250)" style="text;html=1;resizable=0;autosize=1;align=center;verticalAlign=middle;points=[];fillColor=none;strokeColor=none;rounded=0;" vertex="1" parent="1">
          <mxGeometry x="1410" y="895" width="80" height="30" as="geometry" />
        </mxCell>
        <mxCell id="58_N4NvC8-cw4pMC1R1P-16" value="172.15.67.1&lt;br&gt;(VLAN250)" style="text;html=1;resizable=0;autosize=1;align=center;verticalAlign=middle;points=[];fillColor=none;strokeColor=none;rounded=0;" vertex="1" parent="1">
          <mxGeometry x="1140" y="865" width="80" height="30" as="geometry" />
        </mxCell>
        <mxCell id="58_N4NvC8-cw4pMC1R1P-17" value="172.15.61.1&lt;br&gt;(VLAN250)" style="text;html=1;resizable=0;autosize=1;align=center;verticalAlign=middle;points=[];fillColor=none;strokeColor=none;rounded=0;" vertex="1" parent="1">
          <mxGeometry x="670" y="865" width="80" height="30" as="geometry" />
        </mxCell>
        <mxCell id="58_N4NvC8-cw4pMC1R1P-18" style="edgeStyle=none;html=1;labelBackgroundColor=none;startFill=0;endArrow=none;endFill=0;strokeWidth=2;fontFamily=Verdana;fontSize=12;exitX=0.468;exitY=0.491;exitDx=0;exitDy=0;exitPerimeter=0;" edge="1" parent="1" source="58_N4NvC8-cw4pMC1R1P-12" target="58_N4NvC8-cw4pMC1R1P-5">
          <mxGeometry relative="1" as="geometry">
            <mxPoint x="1568.7659999999996" y="930.1399999999999" as="sourcePoint" />
            <mxPoint x="1284.5935757843422" y="799.8594846770777" as="targetPoint" />
          </mxGeometry>
        </mxCell>
        <mxCell id="58_N4NvC8-cw4pMC1R1P-19" style="edgeStyle=none;html=1;labelBackgroundColor=none;startFill=0;endArrow=none;endFill=0;strokeWidth=2;fontFamily=Verdana;fontSize=12;" edge="1" parent="1" source="58_N4NvC8-cw4pMC1R1P-11" target="58_N4NvC8-cw4pMC1R1P-5">
          <mxGeometry relative="1" as="geometry">
            <mxPoint x="1578.7659999999996" y="940.1399999999999" as="sourcePoint" />
            <mxPoint x="1294.5935757843422" y="809.8594846770777" as="targetPoint" />
          </mxGeometry>
        </mxCell>
        <mxCell id="58_N4NvC8-cw4pMC1R1P-20" value="LAN&lt;br&gt;10.68.0.0/24" style="ellipse;shape=cloud;whiteSpace=wrap;html=1;rounded=0;shadow=0;comic=0;strokeWidth=1;fontFamily=Verdana;fontSize=12;" vertex="1" parent="1">
          <mxGeometry x="1430" y="1040" width="250" height="160" as="geometry" />
        </mxCell>
        <mxCell id="58_N4NvC8-cw4pMC1R1P-21" style="edgeStyle=none;html=1;labelBackgroundColor=none;startFill=0;endArrow=none;endFill=0;strokeWidth=2;fontFamily=Verdana;fontSize=12;entryX=0.437;entryY=0.38;entryDx=0;entryDy=0;entryPerimeter=0;" edge="1" parent="1" source="58_N4NvC8-cw4pMC1R1P-20" target="58_N4NvC8-cw4pMC1R1P-13">
          <mxGeometry relative="1" as="geometry">
            <mxPoint x="1568.7659999999996" y="930.1399999999999" as="sourcePoint" />
            <mxPoint x="1284.5935757843422" y="799.8594846770777" as="targetPoint" />
          </mxGeometry>
        </mxCell>
        <mxCell id="58_N4NvC8-cw4pMC1R1P-13" value="" style="shape=mxgraph.cisco.routers.router;html=1;dashed=0;fillColor=#036897;strokeColor=#ffffff;strokeWidth=2;verticalLabelPosition=bottom;verticalAlign=top;rounded=0;shadow=0;comic=0;fontFamily=Verdana;fontSize=12;" vertex="1" parent="1">
          <mxGeometry x="1520" y="900" width="78" height="53" as="geometry" />
        </mxCell>
        <mxCell id="58_N4NvC8-cw4pMC1R1P-22" value="LAN&lt;br&gt;10.67.0.0/24" style="ellipse;shape=cloud;whiteSpace=wrap;html=1;rounded=0;shadow=0;comic=0;strokeWidth=1;fontFamily=Verdana;fontSize=12;" vertex="1" parent="1">
          <mxGeometry x="1001" y="1040" width="250" height="160" as="geometry" />
        </mxCell>
        <mxCell id="58_N4NvC8-cw4pMC1R1P-23" value="LAN&lt;br&gt;10.61.0.0/24" style="ellipse;shape=cloud;whiteSpace=wrap;html=1;rounded=0;shadow=0;comic=0;strokeWidth=1;fontFamily=Verdana;fontSize=12;" vertex="1" parent="1">
          <mxGeometry x="573" y="1040" width="250" height="160" as="geometry" />
        </mxCell>
        <mxCell id="58_N4NvC8-cw4pMC1R1P-24" style="edgeStyle=none;html=1;labelBackgroundColor=none;startFill=0;endArrow=none;endFill=0;strokeWidth=2;fontFamily=Verdana;fontSize=12;entryX=0.498;entryY=0.357;entryDx=0;entryDy=0;entryPerimeter=0;" edge="1" parent="1" source="58_N4NvC8-cw4pMC1R1P-22" target="58_N4NvC8-cw4pMC1R1P-12">
          <mxGeometry relative="1" as="geometry">
            <mxPoint x="1564.9999999999995" y="1050" as="sourcePoint" />
            <mxPoint x="1564.0859999999998" y="930.1399999999999" as="targetPoint" />
          </mxGeometry>
        </mxCell>
        <mxCell id="58_N4NvC8-cw4pMC1R1P-12" value="" style="shape=mxgraph.cisco.routers.router;html=1;dashed=0;fillColor=#036897;strokeColor=#ffffff;strokeWidth=2;verticalLabelPosition=bottom;verticalAlign=top;rounded=0;shadow=0;comic=0;fontFamily=Verdana;fontSize=12;" vertex="1" parent="1">
          <mxGeometry x="1087" y="900" width="78" height="53" as="geometry" />
        </mxCell>
        <mxCell id="58_N4NvC8-cw4pMC1R1P-25" style="edgeStyle=none;html=1;labelBackgroundColor=none;startFill=0;endArrow=none;endFill=0;strokeWidth=2;fontFamily=Verdana;fontSize=12;entryX=0.495;entryY=0.468;entryDx=0;entryDy=0;entryPerimeter=0;" edge="1" parent="1" source="58_N4NvC8-cw4pMC1R1P-23" target="58_N4NvC8-cw4pMC1R1P-11">
          <mxGeometry relative="1" as="geometry">
            <mxPoint x="1574.9999999999995" y="1060" as="sourcePoint" />
            <mxPoint x="1574.0859999999998" y="940.1399999999999" as="targetPoint" />
          </mxGeometry>
        </mxCell>
        <mxCell id="58_N4NvC8-cw4pMC1R1P-11" value="" style="shape=mxgraph.cisco.routers.router;html=1;dashed=0;fillColor=#036897;strokeColor=#ffffff;strokeWidth=2;verticalLabelPosition=bottom;verticalAlign=top;rounded=0;shadow=0;comic=0;fontFamily=Verdana;fontSize=12;" vertex="1" parent="1">
          <mxGeometry x="659" y="900" width="78" height="53" as="geometry" />
        </mxCell>
        <mxCell id="58_N4NvC8-cw4pMC1R1P-26" value="10.68.0.1" style="text;html=1;resizable=0;autosize=1;align=center;verticalAlign=middle;points=[];fillColor=none;strokeColor=none;rounded=0;" vertex="1" parent="1">
          <mxGeometry x="1560" y="960" width="70" height="20" as="geometry" />
        </mxCell>
        <mxCell id="58_N4NvC8-cw4pMC1R1P-27" value="10.67.0.1" style="text;html=1;resizable=0;autosize=1;align=center;verticalAlign=middle;points=[];fillColor=none;strokeColor=none;rounded=0;" vertex="1" parent="1">
          <mxGeometry x="1130" y="960" width="70" height="20" as="geometry" />
        </mxCell>
        <mxCell id="58_N4NvC8-cw4pMC1R1P-28" value="10.61.0.1" style="text;html=1;resizable=0;autosize=1;align=center;verticalAlign=middle;points=[];fillColor=none;strokeColor=none;rounded=0;" vertex="1" parent="1">
          <mxGeometry x="700" y="960" width="70" height="20" as="geometry" />
        </mxCell>
      </root>
    </mxGraphModel>
  </diagram>
</mxfile>
